<svg xmlns="http://www.w3.org/2000/svg" viewBox="0 0 640 360" role="img" aria-labelledby="title-espn desc-espn">
  <title id="title-espn">ESPN+</title>
  <desc id="desc-espn">Arte propio de Computer Corner para catalogo de streaming.</desc>
  <defs>
    <linearGradient id="bg-espn" x1="0" y1="0" x2="1" y2="1"><stop offset="0" stop-color="#210412"/><stop offset=".58" stop-color="#ff0033"/><stop offset="1" stop-color="#ffd1dc"/></linearGradient>
    <radialGradient id="glow-espn" cx="25%" cy="20%" r="70%"><stop offset="0" stop-color="rgba(255,255,255,.55)"/><stop offset=".42" stop-color="rgba(255,255,255,.12)"/><stop offset="1" stop-color="rgba(255,255,255,0)"/></radialGradient>
    <filter id="shadow-espn" x="-30%" y="-30%" width="160%" height="160%"><feDropShadow dx="0" dy="18" stdDeviation="18" flood-color="#000" flood-opacity=".3"/></filter>
  </defs>
  <rect width="640" height="360" rx="34" fill="url(#bg-espn)"/>
  <rect width="640" height="360" rx="34" fill="url(#glow-espn)" opacity=".72"/>
  <path d="M-34 284C84 206 168 224 268 256c120 38 224 44 410-78v182H-34Z" fill="rgba(255,255,255,.16)"/>
  <path d="M-24 76C92 144 170 123 260 83c102-46 203-63 404 36V0H-24Z" fill="rgba(255,255,255,.11)"/>
  <path d="M410 58h154l-34 244H376z" fill="rgba(255,255,255,.14)"/><path d="M452 58h112l-34 244H418z" fill="rgba(255,255,255,.12)"/>
  <g filter="url(#shadow-espn)">
    <rect x="44" y="58" width="190" height="190" rx="42" fill="rgba(255,255,255,.18)" stroke="rgba(255,255,255,.42)"/>
    <rect x="64" y="78" width="150" height="150" rx="34" fill="rgba(5,12,28,.45)"/>
    <text x="139" y="170" text-anchor="middle" font-family="Arial, Helvetica, sans-serif" font-size="64" font-weight="900" fill="#fff" letter-spacing="0">E+</text>
  </g>
  <text x="274" y="112" font-family="Arial, Helvetica, sans-serif" font-size="18" font-weight="800" fill="rgba(255,255,255,.78)" letter-spacing="3">COMPUTER CORNER</text>
  <text x="274" y="172" font-family="Arial, Helvetica, sans-serif" font-size="48" font-weight="900" fill="#fff" letter-spacing="0">ESPN+</text>
  <text x="276" y="214" font-family="Arial, Helvetica, sans-serif" font-size="22" font-weight="700" fill="rgba(255,255,255,.82)">Deportes en vivo</text>
  <rect x="276" y="246" width="154" height="34" rx="17" fill="rgba(255,255,255,.18)" stroke="rgba(255,255,255,.35)"/>
  <text x="353" y="269" text-anchor="middle" font-family="Arial, Helvetica, sans-serif" font-size="14" font-weight="800" fill="#fff" letter-spacing="1">STREAMING</text>
  <circle cx="572" cy="292" r="6" fill="#ff0033"/><circle cx="594" cy="292" r="6" fill="rgba(255,255,255,.75)"/><circle cx="616" cy="292" r="6" fill="rgba(255,255,255,.38)"/>
</svg>