<svg xmlns="http://www.w3.org/2000/svg" viewBox="0 0 640 360" role="img" aria-labelledby="title-paramountplus desc-paramountplus">
  <title id="title-paramountplus">Paramount+</title>
  <desc id="desc-paramountplus">Arte propio de Computer Corner para catalogo de streaming.</desc>
  <defs>
    <linearGradient id="bg-paramountplus" x1="0" y1="0" x2="1" y2="1"><stop offset="0" stop-color="#061f54"/><stop offset=".58" stop-color="#0064ff"/><stop offset="1" stop-color="#9bd8ff"/></linearGradient>
    <radialGradient id="glow-paramountplus" cx="25%" cy="20%" r="70%"><stop offset="0" stop-color="rgba(255,255,255,.55)"/><stop offset=".42" stop-color="rgba(255,255,255,.12)"/><stop offset="1" stop-color="rgba(255,255,255,0)"/></radialGradient>
    <filter id="shadow-paramountplus" x="-30%" y="-30%" width="160%" height="160%"><feDropShadow dx="0" dy="18" stdDeviation="18" flood-color="#000" flood-opacity=".3"/></filter>
  </defs>
  <rect width="640" height="360" rx="34" fill="url(#bg-paramountplus)"/>
  <rect width="640" height="360" rx="34" fill="url(#glow-paramountplus)" opacity=".72"/>
  <path d="M-34 284C84 206 168 224 268 256c120 38 224 44 410-78v182H-34Z" fill="rgba(255,255,255,.16)"/>
  <path d="M-24 76C92 144 170 123 260 83c102-46 203-63 404 36V0H-24Z" fill="rgba(255,255,255,.11)"/>
  <rect x="414" y="54" width="132" height="206" rx="36" fill="rgba(255,255,255,.15)" transform="rotate(12 480 157)"/><rect x="472" y="30" width="86" height="250" rx="32" fill="rgba(255,255,255,.12)" transform="rotate(12 515 155)"/>
  <g filter="url(#shadow-paramountplus)">
    <rect x="44" y="58" width="190" height="190" rx="42" fill="rgba(255,255,255,.18)" stroke="rgba(255,255,255,.42)"/>
    <rect x="64" y="78" width="150" height="150" rx="34" fill="rgba(5,12,28,.45)"/>
    <text x="139" y="170" text-anchor="middle" font-family="Arial, Helvetica, sans-serif" font-size="64" font-weight="900" fill="#fff" letter-spacing="0">P+</text>
  </g>
  <text x="274" y="112" font-family="Arial, Helvetica, sans-serif" font-size="18" font-weight="800" fill="rgba(255,255,255,.78)" letter-spacing="3">COMPUTER CORNER</text>
  <text x="274" y="172" font-family="Arial, Helvetica, sans-serif" font-size="48" font-weight="900" fill="#fff" letter-spacing="0">Paramount+</text>
  <text x="276" y="214" font-family="Arial, Helvetica, sans-serif" font-size="22" font-weight="700" fill="rgba(255,255,255,.82)">Entretenimiento</text>
  <rect x="276" y="246" width="154" height="34" rx="17" fill="rgba(255,255,255,.18)" stroke="rgba(255,255,255,.35)"/>
  <text x="353" y="269" text-anchor="middle" font-family="Arial, Helvetica, sans-serif" font-size="14" font-weight="800" fill="#fff" letter-spacing="1">STREAMING</text>
  <circle cx="572" cy="292" r="6" fill="#58c7ff"/><circle cx="594" cy="292" r="6" fill="rgba(255,255,255,.75)"/><circle cx="616" cy="292" r="6" fill="rgba(255,255,255,.38)"/>
</svg>