<svg xmlns="http://www.w3.org/2000/svg" viewBox="0 0 520 280" role="img" aria-label="Ilustracion academica">
  <defs>
    <linearGradient id="academicBg" x1="0" x2="1" y1="0" y2="1">
      <stop stop-color="#3b0764"/>
      <stop offset=".55" stop-color="#0554dc"/>
      <stop offset="1" stop-color="#ffb84d"/>
    </linearGradient>
    <filter id="shadow" x="-20%" y="-20%" width="140%" height="140%">
      <feDropShadow dx="0" dy="18" stdDeviation="18" flood-color="#020b1c" flood-opacity=".24"/>
    </filter>
  </defs>
  <rect width="520" height="280" rx="24" fill="url(#academicBg)"/>
  <circle cx="82" cy="58" r="72" fill="#fff" opacity=".11"/>
  <circle cx="440" cy="218" r="94" fill="#ffb84d" opacity=".16"/>
  <g filter="url(#shadow)">
    <path d="M96 118 260 54l164 64-164 64-164-64Z" fill="#f8fafc"/>
    <path d="M152 154v54c58 34 158 34 216 0v-54l-108 42-108-42Z" fill="#dbeafe"/>
    <path d="M260 182 96 118l164-64 164 64-164 64Z" fill="#ffffff"/>
    <path d="M260 154 148 118l112-36 112 36-112 36Z" fill="#1d4ed8"/>
    <path d="M384 134v70" stroke="#ffb84d" stroke-width="12" stroke-linecap="round"/>
    <circle cx="384" cy="218" r="18" fill="#ffb84d"/>
    <rect x="180" y="204" width="160" height="28" rx="14" fill="#061221" opacity=".9"/>
  </g>
</svg>
