<svg xmlns="http://www.w3.org/2000/svg" viewBox="0 0 520 280" role="img" aria-label="Ilustracion empresarial">
  <defs>
    <linearGradient id="businessBg" x1="0" x2="1" y1="0" y2="1">
      <stop stop-color="#04162d"/>
      <stop offset=".58" stop-color="#0f766e"/>
      <stop offset="1" stop-color="#00d4ff"/>
    </linearGradient>
    <filter id="shadow" x="-20%" y="-20%" width="140%" height="140%">
      <feDropShadow dx="0" dy="18" stdDeviation="18" flood-color="#020b1c" flood-opacity=".24"/>
    </filter>
  </defs>
  <rect width="520" height="280" rx="24" fill="url(#businessBg)"/>
  <circle cx="428" cy="62" r="86" fill="#fff" opacity=".1"/>
  <path d="M0 214c82-34 156-38 222-12 82 32 160 24 298-46v124H0v-66Z" fill="#fff" opacity=".13"/>
  <g filter="url(#shadow)">
    <rect x="88" y="54" width="344" height="184" rx="20" fill="#f8fafc"/>
    <rect x="118" y="82" width="54" height="118" rx="10" fill="#00d4ff"/>
    <rect x="198" y="126" width="54" height="74" rx="10" fill="#ffb84d"/>
    <rect x="278" y="102" width="54" height="98" rx="10" fill="#0554dc"/>
    <path d="M126 152c40-50 82-62 126-36 44 27 82 15 130-46" fill="none" stroke="#061221" stroke-width="12" stroke-linecap="round" stroke-linejoin="round"/>
    <path d="M348 68h42v42" fill="none" stroke="#061221" stroke-width="12" stroke-linecap="round" stroke-linejoin="round"/>
  </g>
</svg>
