<svg xmlns="http://www.w3.org/2000/svg" viewBox="0 0 520 280" role="img" aria-label="Ilustracion tecnologica">
  <defs>
    <linearGradient id="techBg" x1="0" x2="1" y1="0" y2="1">
      <stop stop-color="#05245b"/>
      <stop offset=".55" stop-color="#0554dc"/>
      <stop offset="1" stop-color="#00d4ff"/>
    </linearGradient>
    <filter id="shadow" x="-20%" y="-20%" width="140%" height="140%">
      <feDropShadow dx="0" dy="18" stdDeviation="18" flood-color="#020b1c" flood-opacity=".24"/>
    </filter>
  </defs>
  <rect width="520" height="280" rx="24" fill="url(#techBg)"/>
  <circle cx="424" cy="58" r="82" fill="#fff" opacity=".12"/>
  <circle cx="94" cy="224" r="74" fill="#00d4ff" opacity=".18"/>
  <g filter="url(#shadow)">
    <rect x="112" y="64" width="296" height="150" rx="18" fill="#f7fbff"/>
    <rect x="130" y="84" width="260" height="100" rx="10" fill="#061221"/>
    <path d="M166 132 202 104l10 13-19 15 19 15-10 13-36-28Zm188 0-36 28-10-13 19-15-19-15 10-13 36 28Zm-112 42 32-88 16 6-32 88-16-6Z" fill="#00d4ff"/>
    <path d="M86 218h348l26 32H60l26-32Z" fill="#dbeafe"/>
    <path d="M194 226h132l10 13H184l10-13Z" fill="#93c5fd"/>
  </g>
</svg>
